<?xml version="1.0" encoding="UTF-8" standalone="no"?>
<!DOCTYPE svg PUBLIC "-//W3C//DTD SVG 1.1//EN"
 "http://www.w3.org/Graphics/SVG/1.1/DTD/svg11.dtd">
<!-- Generated by graphviz version 5.0.0 (20220707.1540)
 -->
<!-- Title: dependencies Pages: 1 -->
<svg width="335pt" height="247pt"
 viewBox="0.00 0.00 335.00 246.80" xmlns="http://www.w3.org/2000/svg" xmlns:xlink="http://www.w3.org/1999/xlink">
<g id="graph0" class="graph" transform="scale(1 1) rotate(0) translate(4 242.8)">
<title>dependencies</title>
<polygon fill="white" stroke="transparent" points="-4,4 -4,-242.8 331,-242.8 331,4 -4,4"/>
<text text-anchor="middle" x="163.5" y="-8.2" font-family="sans-serif" font-size="14.00">dependencies</text>
<g id="clust1" class="cluster">
<title>cluster_AppModule</title>
<polygon fill="none" stroke="black" stroke-dasharray="1,5" points="8,-32.8 8,-230.8 319,-230.8 319,-32.8 8,-32.8"/>
</g>
<g id="clust7" class="cluster">
<title>cluster_AppModule_bootstrap</title>
<polygon fill="none" stroke="black" points="113,-170.8 113,-222.8 237,-222.8 237,-170.8 113,-170.8"/>
</g>
<g id="clust2" class="cluster">
<title>cluster_AppModule_declarations</title>
<polygon fill="none" stroke="black" points="16,-40.8 16,-92.8 311,-92.8 311,-40.8 16,-40.8"/>
</g>
<!-- AppComponent -->
<g id="node1" class="node">
<title>AppComponent</title>
<polygon fill="#ffffb3" stroke="black" points="302.94,-84.8 197.06,-84.8 197.06,-48.8 302.94,-48.8 302.94,-84.8"/>
<text text-anchor="middle" x="250" y="-62.6" font-family="Times,serif" font-size="14.00">AppComponent</text>
</g>
<!-- AppModule -->
<g id="node3" class="node">
<title>AppModule</title>
<polygon fill="#8dd3c7" stroke="black" points="216.66,-149.8 213.66,-153.8 192.66,-153.8 189.66,-149.8 133.34,-149.8 133.34,-113.8 216.66,-113.8 216.66,-149.8"/>
<text text-anchor="middle" x="175" y="-127.6" font-family="Times,serif" font-size="14.00">AppModule</text>
</g>
<!-- AppComponent&#45;&gt;AppModule -->
<g id="edge1" class="edge">
<title>AppComponent&#45;&gt;AppModule</title>
<path fill="none" stroke="black" d="M207.06,-84.91C207.06,-84.91 207.06,-103.79 207.06,-103.79"/>
<polygon fill="black" stroke="black" points="203.56,-103.79 207.06,-113.79 210.56,-103.79 203.56,-103.79"/>
</g>
<!-- ThreeViewerComponent -->
<g id="node2" class="node">
<title>ThreeViewerComponent</title>
<polygon fill="#ffffb3" stroke="black" points="179.67,-84.8 24.33,-84.8 24.33,-48.8 179.67,-48.8 179.67,-84.8"/>
<text text-anchor="middle" x="102" y="-62.6" font-family="Times,serif" font-size="14.00">ThreeViewerComponent</text>
</g>
<!-- ThreeViewerComponent&#45;&gt;AppModule -->
<g id="edge2" class="edge">
<title>ThreeViewerComponent&#45;&gt;AppModule</title>
<path fill="none" stroke="black" d="M156.38,-84.91C156.38,-84.91 156.38,-103.79 156.38,-103.79"/>
<polygon fill="black" stroke="black" points="152.88,-103.79 156.38,-113.79 159.88,-103.79 152.88,-103.79"/>
</g>
<!-- AppComponent  -->
<g id="node4" class="node">
<title>AppComponent </title>
<polygon fill="#80b1d3" stroke="black" points="229.44,-214.8 120.56,-214.8 120.56,-178.8 229.44,-178.8 229.44,-214.8"/>
<text text-anchor="middle" x="175" y="-192.6" font-family="Times,serif" font-size="14.00">AppComponent </text>
</g>
<!-- AppModule&#45;&gt;AppComponent  -->
<g id="edge3" class="edge">
<title>AppModule&#45;&gt;AppComponent </title>
<path fill="none" stroke="black" stroke-dasharray="1,5" d="M175,-149.91C175,-149.91 175,-168.79 175,-168.79"/>
<polygon fill="black" stroke="black" points="171.5,-168.79 175,-178.79 178.5,-168.79 171.5,-168.79"/>
</g>
</g>
</svg>
